PathFileType	4	(X/Y/Z)	C:\Git\research_data\torsion_deformities_healthy_kinematics\simulations\P03\pre\Static01\markers.trc
DataRate	CameraRate	NumFrames	NumMarkers	Units	OrigDataRate	OrigDataStartFrame	OrigNumFrames
150.000000	150.000000	4	104	mm	150.000000	75	150
Frame#	Time	LFHD			LBHD			RFHD			RBHD			C7			T10			CLAV			STRN			RBAK			LSHO			LUPA			LELB			LFRA			LWRB			LWRA			LFIN			RSHO			RUPA			RELB			RFRA			RWRB			RWRA			RFIN			SACR			LASI			RASI			LT1			LT2			LT3			LS1			LS2			LS3			LHEE			LTOE			RT1			RT2			RT3			RS1			RS2			RS3			RHEE			RTOE			LKNE			LKNM			LANK			LANM			RKNM			RKNE			RANM			RANK			SACO			SACA			SACL			SACP			LKJC			RKJC			LAJC			RAJC			LMMA			RMMA			LTHI			RTHI			LTIB			RTIB			funktRKJC			funktLKJC			funktRHIP			funktLHIP			LHJC			RHJC			LPelvisAngles			RPelvisAngles			LFootProgressAngles			RFootProgressAngles			LHipAngles			RHipAngles			LKneeAngles			RKneeAngles			LAnkleAngles			RAnkleAngles			LFFootAngles			RFFootAngles			LAbsAnkleAngle			RAbsAnkleAngle			RNeckAngles			LNeckAngles			RSpineAngles			LSpineAngles			LShoulderAngles			LElbowAngles			LWristAngles			RShoulderAngles			RElbowAngles			RWristAngles			RThoraxAngles			LThoraxAngles			RHeadAngles			LHeadAngles			LNormalisedGRF			RNormalisedGRF			LGroundReactionForce			RGroundReactionForce			LGRF			RGRF			
		X1	Y1	Z1	X2	Y2	Z2	X3	Y3	Z3	X4	Y4	Z4	X5	Y5	Z5	X6	Y6	Z6	X7	Y7	Z7	X8	Y8	Z8	X9	Y9	Z9	X10	Y10	Z10	X11	Y11	Z11	X12	Y12	Z12	X13	Y13	Z13	X14	Y14	Z14	X15	Y15	Z15	X16	Y16	Z16	X17	Y17	Z17	X18	Y18	Z18	X19	Y19	Z19	X20	Y20	Z20	X21	Y21	Z21	X22	Y22	Z22	X23	Y23	Z23	X24	Y24	Z24	X25	Y25	Z25	X26	Y26	Z26	X27	Y27	Z27	X28	Y28	Z28	X29	Y29	Z29	X30	Y30	Z30	X31	Y31	Z31	X32	Y32	Z32	X33	Y33	Z33	X34	Y34	Z34	X35	Y35	Z35	X36	Y36	Z36	X37	Y37	Z37	X38	Y38	Z38	X39	Y39	Z39	X40	Y40	Z40	X41	Y41	Z41	X42	Y42	Z42	X43	Y43	Z43	X44	Y44	Z44	X45	Y45	Z45	X46	Y46	Z46	X47	Y47	Z47	X48	Y48	Z48	X49	Y49	Z49	X50	Y50	Z50	X51	Y51	Z51	X52	Y52	Z52	X53	Y53	Z53	X54	Y54	Z54	X55	Y55	Z55	X56	Y56	Z56	X57	Y57	Z57	X58	Y58	Z58	X59	Y59	Z59	X60	Y60	Z60	X61	Y61	Z61	X62	Y62	Z62	X63	Y63	Z63	X64	Y64	Z64	X65	Y65	Z65	X66	Y66	Z66	X67	Y67	Z67	X68	Y68	Z68	X69	Y69	Z69	X70	Y70	Z70	X71	Y71	Z71	X72	Y72	Z72	X73	Y73	Z73	X74	Y74	Z74	X75	Y75	Z75	X76	Y76	Z76	X77	Y77	Z77	X78	Y78	Z78	X79	Y79	Z79	X80	Y80	Z80	X81	Y81	Z81	X82	Y82	Z82	X83	Y83	Z83	X84	Y84	Z84	X85	Y85	Z85	X86	Y86	Z86	X87	Y87	Z87	X88	Y88	Z88	X89	Y89	Z89	X90	Y90	Z90	X91	Y91	Z91	X92	Y92	Z92	X93	Y93	Z93	X94	Y94	Z94	X95	Y95	Z95	X96	Y96	Z96	X97	Y97	Z97	X98	Y98	Z98	X99	Y99	Z99	X100	Y100	Z100	X101	Y101	Z101	X102	Y102	Z102	X103	Y103	Z103	X104	Y104	Z104	

76	0.5	386.1624145507811	1439.044311523438	-1137.076171875	364.5429077148436	1420.072998046875	-998.0889282226562	502.1629638671873	1440.094604492188	-1142.953857421875	513.2630615234373	1420.715942382812	-990.3739624023438	445.4058227539061	1274.560424804688	-966.1526489257812	446.6950683593749	1095.8837890625	-914.6336669921875	429.5942382812499	1211.496459960938	-1096.443481445312	425.1489257812499	1158.165771484375	-1128.293090820312	544.152404785156	1178.14453125	-934.422607421875	313.725128173828	1262.483276367188	-1039.47998046875	219.8135681152343	1046.218139648438	-976.3984375	191.1369628906249	972.901611328125	-966.004150390625	147.2404632568358	890.1724243164062	-980.490234375	90.97644805908193	769.9935913085938	-1023.704528808594	125.8918380737304	775.2399291992188	-1081.39501953125	79.37397003173817	717.4998779296875	-1110.171020507812	561.591125488281	1251.043334960938	-1063.073486328125	651.7343139648435	1077.501098632812	-1054.250244140625	705.997863769531	958.9257202148438	-1032.541015625	758.5187988281249	830.5969848632812	-1094.028442382812	778.7715454101561	750.6001586914062	-1106.4365234375	726.1442871093749	746.6441650390625	-1148.391723632812	771.3746337890624	700.1386108398438	-1190.526000976562	430.967315673828	875.4142456054688	-914.4854736328125	279.6664733886718	870.7720336914062	-1070.68212890625	522.6777954101561	877.9996948242188	-1122.073486328125	243.7948303222655	586.51123046875	-1126.661987304688	231.6203308105468	474.7353515625	-1078.057861328125	276.5366821289061	532.1311645507812	-1201.816772460938	283.0831298828124	217.4752960205078	-1032.361938476562	343.0146179199218	148.4938507080078	-950.117919921875	254.440689086914	132.1348571777344	-1061.423950195312	368.0487976074218	41.73381423950197	-973.7232055664062	262.2227783203124	41.30725097656251	-1083.07177734375	593.6067504882811	607.2088012695312	-1131.62841796875	586.9938354492186	508.6707458496094	-1055.50830078125	583.8339233398436	534.4330444335938	-1197.091674804688	587.7312622070311	266.4491577148438	-1089.093505859375	562.6086425781249	216.8509826660157	-981.677978515625	582.7436523437499	176.1982727050782	-1116.880615234375	500.2057800292968	44.93220520019534	-981.7697143554688	570.5234985351561	41.73753356933597	-1123.321044921875	268.0230712890624	433.0534057617188	-1146.632202148438	367.4410705566406	421.8644409179688	-1163.332885742188	304.8709716796874	49.70633316040041	-994.1181030273438	356.9505920410156	47.44105148315432	-1044.861694335938	466.9848327636718	424.3839111328126	-1164.93701171875	569.6671142578124	439.7857971191407	-1164.745483398438	490.7003173828124	52.85050582885745	-1062.658325195312	552.3162231445311	47.56452178955082	-1019.0234375	425.1535034179686	875.1888427734375	-982.8659057617188	423.9544067382811	875.148681640625	-988.54150390625	419.4804077148436	875.0201416015625	-981.6661376953125	423.4198913574218	933.1730346679688	-982.9098510742188	317.7320556640624	427.4589233398438	-1154.982543945312	518.3259887695311	432.0848693847657	-1164.84130859375	330.9107666015624	48.57369232177737	-1019.489868164062	521.5083007812499	50.20751571655276	-1040.8408203125	356.9505920410156	47.44105148315432	-1044.861694335938	490.7003173828124	52.85050582885745	-1062.658325195312	225.7979736328124	611.7417602539062	-1082.241577148438	603.7774047851561	624.0269165039062	-1115.715576171875	242.4558563232421	244.0903472900391	-1008.456237792969	614.0417480468749	243.4971771240235	-1039.510620117188	0	0	0	0	0	0	0	0	0	0	0	0	355.7215881347655	782.8394165039062	-1042.887451171875	469.3178405761718	785.3953247070312	-1066.340698242188	-1.712740659713744	-11.93440055847168	0.04329631105065356	1.712740659713744	11.93440055847168	0.04329631105065335	12.9043664932251	-44.07520294189453	0.3724363148212425	8.955424308776857	-26.41663360595703	1.30307912826538	-3.720488548278808	4.788010597229004	18.72328567504883	-9.021099090576172	-9.918828964233398	14.04387664794922	2.150833606719975	-33.54271697998047	37.87028884887695	7.092020034790043	-30.57393836975098	33.56121826171875	1.258740425109864	-2.568711996078491	15.09467029571533	-0.4436256587505335	5.271888256072998	14.75530338287354	-2.223903425982768e-15	-1.361748106121315e-31	2.435112150171812e-15	6.038084105381173e-15	-1.590277359294755e-15	-1.192708045940846e-15	9.202727088335287e-16	0	15.02919387817383	8.970319754173407e-16	0	14.64964389801025	-0.744160354137422	8.37265682220459	-12.35934162139893	0.7441603541374204	-8.37265682220459	-12.35934162139893	2.996944427490234	5.730622291564941	4.504815101623535	-2.996944427490233	-5.730622291564941	4.504815101623535	19.12481307983398	-11.38141059875488	-9.380740165710451	-1.6163447685526e-15	1.396263530142883e-12	38.53108978271484	-12.54400825500489	128.8679962158203	16.14438819885254	24.79020881652832	0.7802909016609207	-7.969946384429933	-1.744892412781256e-15	-2.415631280075492e-12	36.43174743652344	-0.3997514247894356	132.7877197265625	19.23546600341797	-0.7765785455703735	6.282415390014648	4.845897197723389	0.7765785455703742	-6.282415390014648	4.845897197723389	0.4151128232479101	-2.048694133758545	7.478281021118164	-0.4151128232479092	2.048694133758545	7.478281021118164	0	0	0	0	0	0	0	0	0	0	0	0	0	0	0	0	0	0	
77	0.5066666666666667	386.3157348632811	1438.893798828125	-1137.318115234375	364.5366210937498	1420.008056640625	-998.350341796875	502.3153686523436	1439.99951171875	-1143.049438476562	513.2495117187498	1420.707397460938	-990.4615478515625	445.4821777343749	1274.51806640625	-966.1751098632812	446.7048950195311	1095.829956054688	-914.6346435546875	429.6643676757811	1211.421142578125	-1096.462890625	425.1846618652343	1158.10888671875	-1128.2958984375	544.248596191406	1178.060791015625	-934.4857788085938	313.8051452636718	1262.428466796875	-1039.541870117188	219.8329010009764	1046.200927734375	-976.4635009765625	191.1085205078124	972.9080810546875	-966.0765380859375	147.1986541748046	890.1802978515625	-980.5693969726562	90.93565368652334	769.9976196289062	-1023.789978027344	125.9138793945311	775.2133178710938	-1081.441284179688	79.40499114990223	717.476806640625	-1110.240234375	561.6723632812498	1250.969116210938	-1063.130249023438	651.8383789062498	1077.4443359375	-1054.275024414062	706.1320190429685	958.8829956054688	-1032.54248046875	758.5447387695311	830.5215454101562	-1094.026489257812	778.7670288085936	750.5122680664062	-1106.424438476562	726.0944824218749	746.5419311523438	-1148.310791015625	771.2523803710936	700.0248413085938	-1190.4765625	430.8800659179686	875.3569946289062	-914.4596557617188	279.674835205078	870.7755126953125	-1070.744506835938	522.7283935546874	877.8759155273438	-1121.98095703125	243.6646881103515	586.5236206054688	-1126.652221679688	231.5150299072265	474.751220703125	-1077.998779296875	276.3814086914061	532.1201782226562	-1201.815185546875	283.0346069335937	217.4727478027344	-1032.330932617188	343.0258789062499	148.5164642333985	-950.118896484375	254.3800964355468	132.1250762939453	-1061.351440429688	368.0436401367187	41.74193954467776	-973.7266235351562	262.1761474609374	41.29845428466798	-1083.037963867188	593.6618652343749	607.0964965820312	-1131.6416015625	587.0225830078124	508.4913330078126	-1055.599853515625	583.9072265624999	534.381591796875	-1197.16259765625	587.7604370117186	266.3934631347657	-1089.201538085938	562.6573486328124	216.8379821777344	-981.7896728515625	582.7717285156249	176.1346588134766	-1116.950927734375	500.1935119628906	44.93818664550784	-981.777587890625	570.5278320312499	41.74003219604496	-1123.319458007812	267.9260864257812	433.0154418945312	-1146.501831054688	367.2807006835937	421.8540954589844	-1163.372192382812	304.8564453124999	49.6897773742676	-994.10302734375	356.9220581054687	47.46706390380862	-1044.852416992188	467.0796203613281	424.3123779296876	-1165.16552734375	569.7322998046874	439.7187805175782	-1164.907348632812	490.7001037597656	52.8489799499512	-1062.681030273438	552.3150634765624	47.56694030761722	-1019.039367675781	425.110137939453	875.1278076171875	-982.83544921875	423.9146728515624	875.0877075195312	-988.5118408203125	419.4362182617186	874.9620361328125	-981.6393432617188	423.4053649902343	933.1128540039062	-982.8860473632812	317.6033935546874	427.4347839355469	-1154.93701171875	518.4059448242186	432.0155639648438	-1165.036499023438	330.8892517089843	48.57841873168947	-1019.477722167969	521.5075683593749	50.20796203613284	-1040.860229492188	356.9220581054687	47.46706390380862	-1044.852416992188	490.7001037597656	52.8489799499512	-1062.681030273438	225.7394256591796	611.6765747070312	-1082.029418945312	603.8169555664061	623.9653930664062	-1115.706909179688	242.3937530517577	244.0552215576172	-1008.426086425781	614.0769042968749	243.4735870361328	-1039.618041992188	0	0	0	0	0	0	0	0	0	0	0	0	355.6704711914061	782.8074951171875	-1042.892700195312	469.2831115722655	785.3038330078125	-1066.27294921875	-1.683859586715698	-11.89744758605957	0.05002257972955714	1.683859586715698	11.89744758605957	0.05002257972955693	12.88830947875977	-44.09590911865234	0.3831483125686638	8.961743354797365	-26.42514038085938	1.30326771736145	-3.717555046081542	4.643218040466309	18.71661376953125	-9.065546989440918	-9.903484344482422	14.08753967285156	2.115327596664433	-33.45584487915039	37.86747741699219	7.098773956298832	-30.53005027770996	33.63306045532227	1.262548923492433	-2.58383321762085	15.09172439575195	-0.4414220154285425	5.260254383087158	14.78299999237061	9.516815808986116e-15	3.180554718589511e-15	1.441188866787039e-15	-5.143553362093115e-15	1.590277359294755e-15	3.14951808056547e-31	9.200484693073177e-16	0	15.02553176879883	8.986448065304717e-16	0	14.67598342895508	-0.7883154749870314	8.440655708312988	-12.33724784851074	0.7883154749870298	-8.440655708312988	-12.33724784851074	2.99305534362793	5.696997165679932	4.508126735687256	-2.993055343627929	-5.696997165679932	4.508126735687256	19.1237678527832	-11.34001350402832	-9.375735282897951	5.539758452149256e-15	-3.468394842165434e-12	38.52872085571289	-12.5491008758545	128.886474609375	16.14488983154297	24.83064460754395	0.8747404217720047	-7.982884407043459	-1.531281928321808e-16	-4.770832099060089e-14	36.45602798461914	-0.3932976126670907	132.7705841064453	19.2430534362793	-0.8014208078384399	6.281251907348633	4.855380058288574	0.8014208078384406	-6.281251907348633	4.855380058288574	0.4478907883167272	-2.112293243408203	7.443650245666504	-0.4478907883167264	2.112293243408203	7.443650245666504	0	0	0	0	0	0	0	0	0	0	0	0	0	0	0	0	0	0	
78	0.5133333333333334	386.467071533203	1438.736206054688	-1137.555786132812	364.5367736816405	1419.943115234375	-998.6046752929688	502.4724121093748	1439.899536132812	-1143.142578125	513.246154785156	1420.697021484375	-990.5567626953125	445.556182861328	1274.473022460938	-966.1931762695312	446.7177734374999	1095.772216796875	-914.6363525390625	429.7344665527343	1211.340454101562	-1096.485595703125	425.2193908691405	1158.04345703125	-1128.299072265625	544.3334960937498	1177.96875	-934.5313720703125	313.8872985839843	1262.36767578125	-1039.604858398438	219.8498535156249	1046.177978515625	-976.5372314453125	191.0617370605468	972.928466796875	-966.130615234375	147.1608581542968	890.1795043945312	-980.6519165039062	90.87648010253896	770.00537109375	-1023.870544433594	125.9353179931639	775.1879272460938	-1081.491577148438	79.42383575439442	717.4580078125	-1110.31591796875	561.759826660156	1250.885498046875	-1063.182739257812	651.9442749023435	1077.377075195312	-1054.298217773438	706.266418457031	958.8256225585938	-1032.534790039062	758.5798950195311	830.4324951171875	-1094.021728515625	778.7354736328124	750.4240112304688	-1106.381469726562	726.0498046874999	746.431640625	-1148.226318359375	771.1496582031249	699.9046630859375	-1190.420654296875	430.7767333984374	875.2998657226562	-914.4215698242188	279.6825866699218	870.7841796875	-1070.817626953125	522.7841796874999	877.7429809570312	-1121.88623046875	243.5294494628905	586.5391845703125	-1126.650756835938	231.4160766601562	474.7704772949219	-1077.924072265625	276.224151611328	532.109375	-1201.815795898438	282.9661560058593	217.4640655517578	-1032.303588867188	343.0055541992187	148.537109375	-950.10791015625	254.3158721923828	132.1089935302735	-1061.291259765625	368.0310974121093	41.75086593627932	-973.72509765625	262.1275329589843	41.28805541992189	-1083.00146484375	593.7154541015624	606.9848022460938	-1131.660034179688	587.0607299804686	508.3084716796876	-1055.702758789062	583.9793090820311	534.3290405273438	-1197.244018554688	587.7917480468749	266.3361206054688	-1089.314208984375	562.7015991210936	216.8352813720703	-981.8963623046875	582.8004150390624	176.068115234375	-1117.02587890625	500.1815185546874	44.94511795043948	-981.78564453125	570.5336914062499	41.74311447143558	-1123.317626953125	267.7944946289062	433.0289001464844	-1146.457275390625	367.1345825195312	421.8571472167969	-1163.391723632812	304.8342285156249	49.67188644409182	-994.0831298828125	356.8861083984374	47.49422836303713	-1044.835083007812	467.1852416992187	424.2393188476563	-1165.401123046875	569.7952270507811	439.6460876464844	-1165.087890625	490.7031860351562	52.84704589843753	-1062.704833984375	552.3151245117186	47.56859970092777	-1019.056945800781	425.062774658203	875.06591796875	-982.80810546875	423.8713378906249	875.0258178710938	-988.4853515625	419.3879089355468	874.9035034179688	-981.6160278320312	423.3908386230468	933.0519409179688	-982.8668212890625	317.4645385742187	427.4430236816406	-1154.924560546875	518.4902343749999	431.9426879882813	-1165.244506835938	330.8601684570312	48.58305740356447	-1019.459106445312	521.5091552734374	50.20782470703128	-1040.880859375	356.8861083984374	47.49422836303713	-1044.835083007812	490.7031860351562	52.84704589843753	-1062.704833984375	225.6628112792968	611.6693115234375	-1081.96044921875	603.8566894531249	623.9050903320312	-1115.714233398438	242.3097534179687	244.0402069091797	-1008.405212402344	614.1154174804686	243.4493560791016	-1039.732177734375	0	0	0	0	0	0	0	0	0	0	0	0	355.6136779785155	782.7771606445312	-1042.902954101562	469.2440490722655	785.207275390625	-1066.203857421875	-1.65183138847351	-11.85729026794434	0.05804744362831126	1.65183138847351	11.85729026794434	0.05804744362831105	12.87280559539795	-44.11249160766602	0.3953422605991356	8.969073295593263	-26.43372917175293	1.302847862243652	-3.712318897247314	4.561424255371094	18.7159252166748	-9.114093780517578	-9.878006935119629	14.13441848754883	2.120586156845097	-33.4183464050293	37.87203979492188	7.11001825332642	-30.49016952514648	33.70825576782227	1.266385793685914	-2.598221778869629	15.09136486053467	-0.4391978979110712	5.24833345413208	14.81286716461182	8.995006244027787e-15	-3.18055471858951e-15	-6.957463513089009e-16	-1.565429224270577e-15	1.590277359294755e-15	9.939233892638914e-16	9.200523234241744e-16	0	15.02559471130371	9.003370558091359e-16	0	14.70361995697021	-0.8315994143486036	8.505973815917969	-12.31273078918457	0.8315994143486021	-8.505973815917969	-12.31273078918457	2.984738111495972	5.660031795501709	4.509973049163818	-2.984738111495971	-5.660031795501709	4.509973049163818	19.12983703613281	-11.28186702728271	-9.376688003540041	4.744969498952598e-15	-3.070825494930207e-12	38.53443145751953	-12.54331779479981	128.9004516601562	16.14842987060547	24.86852073669434	0.9709547162055985	-7.997227668762209	7.79983866384895e-15	3.081957432315985e-12	36.48183059692383	-0.3663091659545968	132.7368621826172	19.24833106994629	-0.8251599669456482	6.280115604400635	4.864233016967773	0.8251599669456489	-6.280115604400635	4.864233016967773	0.4801741540431982	-2.173245191574097	7.407205104827881	-0.4801741540431973	2.173245191574097	7.407205104827881	0	0	0	0	0	0	0	0	0	0	0	0	0	0	0	0	0	0	
79	0.52	386.6134643554686	1438.571411132812	-1137.788696289062	364.5451354980467	1419.87841796875	-998.849365234375	502.6310119628905	1439.7919921875	-1143.240112304688	513.2552490234373	1420.686157226562	-990.6602783203125	445.6296997070311	1274.42529296875	-966.211669921875	446.734893798828	1095.71240234375	-914.638916015625	429.803985595703	1211.252075195312	-1096.512451171875	425.2564392089843	1157.963623046875	-1128.305786132812	544.4075927734373	1177.871337890625	-934.5661010742188	313.9720458984374	1262.302734375	-1039.672241210938	219.8612365722655	1046.152099609375	-976.6207275390625	191.0265960693358	972.9321899414062	-966.1954345703125	147.1286773681639	890.17138671875	-980.7401123046875	90.79685211181631	770.019287109375	-1023.943176269531	125.9551620483397	775.16455078125	-1081.550659179688	79.42947387695301	717.44580078125	-1110.399169921875	561.850646972656	1250.79150390625	-1063.230712890625	652.047912597656	1077.30029296875	-1054.317260742188	706.3966674804685	958.75439453125	-1032.515014648438	758.6256103515624	830.3283081054688	-1094.008178710938	778.6890258789061	750.3309936523438	-1106.319946289062	726.0098266601561	746.3123168945312	-1148.136962890625	771.0628662109374	699.7744140625	-1190.349853515625	430.6593017578124	875.2432250976562	-914.3710327148438	279.6895141601561	870.7962646484375	-1070.8994140625	522.8437499999999	877.6047973632812	-1121.78955078125	243.393829345703	586.5563354492188	-1126.660278320312	231.3224639892577	474.7904357910156	-1077.836181640625	276.068634033203	532.099853515625	-1201.821166992188	282.8793640136718	217.4500122070313	-1032.281616210938	342.9569396972656	148.5568542480469	-950.0845947265625	254.2502288818359	132.0858459472657	-1061.245239257812	368.0130920410156	41.76027297973635	-973.7197265625	262.0804443359374	41.27262496948244	-1082.964477539062	593.7653808593749	606.876220703125	-1131.680419921875	587.1024780273436	508.1281433105469	-1055.808837890625	584.0463256835936	534.2760620117188	-1197.327270507812	587.8241577148436	266.2794799804688	-1089.427368164062	562.7388916015624	216.8413543701172	-981.9927978515625	582.8293457031249	176.0003814697266	-1117.101318359375	500.1701660156249	44.95261001586917	-981.79345703125	570.5411376953124	41.7463417053223	-1123.315673828125	267.6352539062499	433.0675354003906	-1146.474243164062	367.0060729980468	421.8731994628906	-1163.394775390625	304.8023986816406	49.6560974121094	-994.0574951171875	356.8444519042968	47.5217971801758	-1044.81103515625	467.2880554199218	424.1670227050782	-1165.628295898438	569.8560180664061	439.5694885253907	-1165.275634765625	490.7083740234374	52.84449768066409	-1062.726684570312	552.3165893554686	47.56922149658207	-1019.07470703125	425.0116271972655	875.0038452148438	-982.7830200195312	423.8243713378905	874.9636840820312	-988.4611206054688	419.3357543945311	874.8449096679688	-981.5950927734375	423.3737182617186	932.9907836914062	-982.8507080078125	317.3206787109374	427.4703674316406	-1154.9345703125	518.5720214843749	431.8682556152344	-1165.452026367188	330.8234252929687	48.5889472961426	-1019.434204101562	521.5125122070311	50.20685958862308	-1040.900756835938	356.8444519042968	47.5217971801758	-1044.81103515625	490.7083740234374	52.84449768066409	-1062.726684570312	225.5734252929687	611.7005615234375	-1081.992553710938	603.8930053710936	623.8466796875	-1115.73486328125	242.2101898193359	244.0390930175782	-1008.3916015625	614.1547241210936	243.4244232177735	-1039.847778320312	0	0	0	0	0	0	0	0	0	0	0	0	355.5529174804686	782.7482299804688	-1042.917358398438	469.2020874023436	785.1080932617188	-1066.1337890625	-1.617903470993041	-11.8145170211792	0.06690418720245371	1.617903470993041	11.8145170211792	0.06690418720245352	12.8540678024292	-44.12259674072266	0.4130654931068413	8.977242469787599	-26.44197273254395	1.301791548728942	-3.705621480941772	4.52387809753418	18.71896171569824	-9.163991928100586	-9.84180736541748	14.18236637115479	2.153723716735844	-33.41538619995117	37.8816032409668	7.124869346618656	-30.45554351806641	33.78281021118164	1.269090294837953	-2.6086585521698	15.0902099609375	-0.4367295801639551	5.235498428344727	14.84310722351074	-3.714788351059928e-15	-2.274651831817707e-31	-1.490885030956278e-15	3.006618196936734e-15	1.590277359294755e-15	-1.192708045940846e-15	9.201792756976075e-16	0	15.02766799926758	9.020215384583766e-16	0	14.73112964630127	-0.873062610626222	8.566476821899414	-12.28522777557373	0.8730626106262205	-8.566476821899414	-12.28522777557373	2.972550630569458	5.620296478271484	4.511312484741211	-2.972550630569457	-5.620296478271484	4.511312484741211	19.13447761535645	-11.24241542816162	-9.374197959899904	7.693671450834576e-16	4.739026553991776e-13	38.53591918945312	-12.54812526702881	128.9375457763672	16.15452003479004	24.9025707244873	1.063480496406557	-8.012351036071779	2.235531663945994e-15	-2.274096492713151e-12	36.50900268554688	-0.329577088356025	132.6962585449219	19.24560165405273	-0.8469995260238647	6.278974056243896	4.873003482818604	0.8469995260238654	-6.278974056243896	4.873003482818604	0.511342346668244	-2.229536056518555	7.367934226989746	-0.5113423466682431	2.229536056518555	7.367934226989746	0	0	0	0	0	0	0	0	0	0	0	0	0	0	0	0	0	0	
